<?xml version="1.0" standalone="no"?>
<!DOCTYPE svg PUBLIC "-//W3C//DTD SVG 20010904//EN"
 "http://www.w3.org/TR/2001/REC-SVG-20010904/DTD/svg10.dtd">
<svg version="1.0" xmlns="http://www.w3.org/2000/svg"
 width="16.000000pt" height="16.000000pt" viewBox="0 0 16.000000 16.000000"
 preserveAspectRatio="xMidYMid meet">
<metadata>
Created by potrace 1.11, written by Peter Selinger 2001-2013
</metadata>
<g transform="translate(0.000000,16.000000) scale(0.005387,-0.005387)"
fill="#000000" stroke="none">
<path d="M876 2357 c-328 -332 -601 -608 -604 -614 -4 -6 -6 -53 -5 -105 1
-51 2 -165 2 -253 l1 -160 610 -611 609 -612 608 610 608 609 0 260 0 259
-606 610 c-333 336 -609 610 -615 610 -5 0 -279 -271 -608 -603z m1130 -118
c285 -286 518 -524 517 -528 -3 -11 -1026 -1041 -1034 -1041 -3 0 -120 115
-260 257 -140 141 -269 270 -286 287 -18 17 -33 35 -33 41 0 5 27 36 58 67
l58 57 229 -229 230 -230 392 392 c216 216 393 396 393 399 0 9 -776 789 -786
789 -4 0 -244 -238 -534 -530 -289 -292 -529 -530 -532 -530 -4 0 -6 56 -5
125 l2 125 535 535 c293 294 534 535 535 535 1 0 235 -234 521 -521z m-226
-231 c325 -331 303 -290 210 -375 l-46 -42 -228 228 -227 228 -392 -393 c-216
-216 -391 -397 -389 -401 2 -4 178 -184 392 -399 l389 -391 533 534 c293 293
535 533 538 533 4 0 5 -193 1 -237 -1 -6 -242 -254 -536 -550 l-535 -538 -520
522 c-286 288 -520 526 -520 530 0 8 1031 1043 1039 1043 2 0 133 -131 291
-292z"/>
</g>
</svg>
