<?xml version="1.0" encoding="UTF-8" standalone="no"?>
<svg width="83px" height="99px" viewBox="0 0 83 99" version="1.1" xmlns="http://www.w3.org/2000/svg" xmlns:xlink="http://www.w3.org/1999/xlink">
    <!-- Generator: sketchtool 41.2 (35397) - http://www.bohemiancoding.com/sketch -->
    <title>3E772A7A-805B-4C71-AC2B-9D3711F68F10</title>
    <desc>Created with sketchtool.</desc>
    <defs></defs>
    <g id="Symbols" stroke="none" stroke-width="1" fill="none" fill-rule="evenodd">
        <g id="Module/Header" transform="translate(-324.000000, -251.000000)" fill="#FF5E1B">
            <g id="Logo-Branding">
                <g transform="translate(324.000000, 244.000000)">
                    <g id="Basement-Logotype" transform="translate(0.000000, 7.000000)">
                        <path d="M82.1623061,42.89571 L82.1859539,40.95927 L41.4930189,0.07326 L0.859203354,40.89987 L0.999119497,57.2814 L0.979412998,58.10409 L41.6585535,98.97624 L82.292369,58.14963 L82.1623061,42.89571 L82.1623061,42.89571 Z M5.68138365,42.88185 L41.4930189,6.90129 L76.3538155,41.92749 L41.560021,76.88637 L41.4969602,76.82301 L22.1195597,57.15468 L26.2372327,53.01846 L41.4969602,68.32584 L67.8603145,41.92749 L67.8130189,41.87898 L41.8319706,15.77565 L41.4940042,15.43509 L41.4930189,15.43509 L5.75331237,51.34437 L5.68138365,42.88185 L5.68138365,42.88185 Z M41.6585535,92.14821 L6.79874214,57.123 L41.5925367,22.16313 L41.6555975,22.22649 L61.0329979,41.89482 L56.9153249,46.03104 L41.6555975,30.72366 L15.2922432,57.123 L15.3395388,57.17052 L41.320587,83.27484 L41.6585535,83.61441 L77.39826,47.70513 L77.4701887,56.16666 L41.6585535,92.14821 L41.6585535,92.14821 Z" id="Logo"></path>
                    </g>
                </g>
            </g>
        </g>
    </g>
</svg>