<?xml version="1.0" encoding="UTF-8" standalone="no"?>
<svg width="121px" height="26px" viewBox="0 0 121 26" version="1.1" xmlns="http://www.w3.org/2000/svg" xmlns:xlink="http://www.w3.org/1999/xlink">
    <!-- Generator: sketchtool 41.2 (35397) - http://www.bohemiancoding.com/sketch -->
    <title>E59BCFDA-C2CB-4026-98F4-9B31390B8B6B</title>
    <desc>Created with sketchtool.</desc>
    <defs></defs>
    <g id="Symbols" stroke="none" stroke-width="1" fill="none" fill-rule="evenodd">
        <g id="Mdule/Footer" transform="translate(-100.000000, -45.000000)">
            <g id="Logo">
                <g transform="translate(100.000000, 45.000000)">
                    <path d="M33.59,18.95 C35.1,18.95 36.01,18.13 36.01,16.79 C36.01,15.47 35.19,14.56 33.64,14.56 L31.07,14.56 L31.07,18.95 L33.59,18.95 L33.59,18.95 Z M33.28,11.88 C34.7,11.88 35.56,11.06 35.56,9.79 C35.56,8.52 34.77,7.72 33.26,7.72 L31.07,7.72 L31.07,11.88 L33.28,11.88 L33.28,11.88 Z M33.75,5 C36.86,5 38.62,6.9 38.62,9.48 C38.62,11.2 37.63,12.58 36.3,13.05 C37.86,13.45 39.12,14.93 39.12,17 C39.12,19.7 37.18,21.65 34.18,21.65 L28,21.65 L28,5 L33.75,5 L33.75,5 Z" id="Fill-1" fill="#333333"></path>
                    <path d="M46.86,16.98 L46.86,16.46 L44.35,16.86 C43.59,16.98 42.98,17.42 42.98,18.31 C42.98,18.99 43.45,19.65 44.42,19.65 C45.68,19.65 46.86,19.02 46.86,16.98 L46.86,16.98 Z M43.29,15 L46.02,14.58 C46.65,14.49 46.86,14.16 46.86,13.76 C46.86,12.94 46.25,12.26 44.98,12.26 C43.68,12.26 42.95,13.12 42.86,14.13 L40.2,13.55 C40.38,11.74 41.98,9.74 44.96,9.74 C48.48,9.74 49.79,11.81 49.79,14.13 L49.79,19.82 C49.79,20.43 49.86,21.25 49.92,21.65 L47.17,21.65 C47.1,21.34 47.06,20.71 47.06,20.26 C46.49,21.18 45.43,21.98 43.79,21.98 C41.42,21.98 39.98,20.31 39.98,18.5 C39.98,16.43 41.44,15.28 43.29,15 L43.29,15 Z" id="Fill-2" fill="#333333"></path>
                    <path d="M53.43,17.84 C53.5,18.76 54.15,19.6 55.46,19.6 C56.45,19.6 56.93,19.06 56.93,18.45 C56.93,17.94 56.59,17.52 55.73,17.33 L54.27,16.98 C52.12,16.48 51.15,15.14 51.15,13.52 C51.15,11.46 52.91,9.74 55.3,9.74 C58.46,9.74 59.52,11.83 59.66,13.08 L57.15,13.66 C57.06,12.98 56.59,12.11 55.33,12.11 C54.54,12.11 53.91,12.61 53.91,13.27 C53.91,13.83 54.31,14.18 54.92,14.3 L56.5,14.65 C58.69,15.12 59.79,16.51 59.79,18.2 C59.79,20.07 58.39,22 55.48,22 C52.15,22 51,19.75 50.86,18.43 L53.43,17.84" id="Fill-3" fill="#333333"></path>
                    <path d="M68.75,14.56 C68.7,13.41 67.98,12.28 66.27,12.28 C64.71,12.28 63.85,13.5 63.79,14.56 L68.75,14.56 L68.75,14.56 Z M71.54,18.34 C70.98,20.33 69.22,22 66.49,22 C63.45,22 60.76,19.72 60.76,15.82 C60.76,12.14 63.38,9.74 66.22,9.74 C69.65,9.74 71.7,12.02 71.7,15.73 C71.7,16.18 71.66,16.65 71.66,16.69 L63.72,16.69 C63.79,18.22 65.03,19.32 66.51,19.32 C67.91,19.32 68.68,18.6 69.04,17.56 L71.54,18.34 L71.54,18.34 Z" id="Fill-4" fill="#333333"></path>
                    <path d="M72.88,21.65 L72.88,10.1 L75.74,10.1 L75.74,11.5 C76.35,10.38 77.77,9.77 78.99,9.77 C80.5,9.77 81.72,10.45 82.28,11.69 C83.16,10.28 84.33,9.77 85.8,9.77 C87.85,9.77 89.81,11.06 89.81,14.16 L89.81,21.65 L86.9,21.65 L86.9,14.79 C86.9,13.55 86.32,12.61 84.94,12.61 C83.66,12.61 82.89,13.64 82.89,14.89 L82.89,21.65 L79.91,21.65 L79.91,14.79 C79.91,13.55 79.3,12.61 77.95,12.61 C76.64,12.61 75.87,13.62 75.87,14.89 L75.87,21.65 L72.88,21.65" id="Fill-5" fill="#333333"></path>
                    <path d="M98.9,14.56 C98.86,13.41 98.14,12.28 96.42,12.28 C94.87,12.28 94.01,13.5 93.94,14.56 L98.9,14.56 L98.9,14.56 Z M101.7,18.34 C101.14,20.33 99.38,22 96.65,22 C93.6,22 90.92,19.72 90.92,15.82 C90.92,12.14 93.53,9.74 96.38,9.74 C99.8,9.74 101.86,12.02 101.86,15.73 C101.86,16.18 101.81,16.65 101.81,16.69 L93.87,16.69 C93.94,18.22 95.18,19.32 96.67,19.32 C98.07,19.32 98.84,18.6 99.2,17.56 L101.7,18.34 L101.7,18.34 Z" id="Fill-6" fill="#333333"></path>
                    <path d="M106.01,21.65 L103.01,21.65 L103.01,10.1 L105.92,10.1 L105.92,11.53 C106.59,10.33 107.92,9.79 109.12,9.79 C111.87,9.79 113.13,11.83 113.13,14.37 L113.13,21.65 L110.13,21.65 L110.13,14.91 C110.13,13.62 109.53,12.61 108.08,12.61 C106.77,12.61 106.01,13.66 106.01,15 L106.01,21.65" id="Fill-7" fill="#333333"></path>
                    <path d="M118.77,10.1 L121,10.1 L121,12.87 L118.77,12.87 L118.77,17.7 C118.77,18.71 119.22,19.04 120.08,19.04 C120.44,19.04 120.84,18.99 121,18.95 L121,21.53 C120.73,21.65 120.19,21.81 119.31,21.81 C117.14,21.81 115.79,20.47 115.79,18.24 L115.79,12.87 L113.78,12.87 L113.78,10.1 L114.35,10.1 C115.52,10.1 116.06,9.3 116.06,8.26 L116.06,6.64 L118.77,6.64 L118.77,10.1" id="Fill-8" fill="#333333"></path>
                    <path d="M10.45,24.2 L1.52,15 L10.43,5.81 L10.45,5.82 L15.42,10.99 L14.36,12.08 L10.45,8.06 L3.7,15 L3.71,15.01 L10.37,21.87 L10.45,21.96 L19.61,12.52 L19.63,14.75 L10.45,24.2 L10.45,24.2 Z M1.24,11.25 L10.41,1.79 L19.34,11 L10.43,20.19 L10.41,20.18 L5.45,15.01 L6.5,13.92 L10.41,17.94 L17.16,11 L17.15,10.99 L10.5,4.13 L10.41,4.04 L1.25,13.48 L1.24,11.25 L1.24,11.25 Z M20.83,11.26 L20.83,10.75 L20.21,10.11 L10.41,0 L0,10.73 L0.03,14.72 L0.04,15.04 L0.03,15.26 L10.45,26 L20.86,15.27 L20.83,11.26 L20.83,11.26 Z" id="Fill-9" fill="#FF5D1A"></path>
                </g>
            </g>
        </g>
    </g>
</svg>